<?xml version="1.0" standalone="no"?>
<!DOCTYPE svg PUBLIC "-//W3C//DTD SVG 20010904//EN"
 "http://www.w3.org/TR/2001/REC-SVG-20010904/DTD/svg10.dtd">
<svg version="1.0" xmlns="http://www.w3.org/2000/svg"
 width="700.000000pt" height="700.000000pt" viewBox="0 0 700.000000 700.000000"
 preserveAspectRatio="xMidYMid meet">
<metadata>
Created by potrace 1.11, written by Peter Selinger 2001-2013
</metadata>
<g transform="translate(0.000000,700.000000) scale(0.100000,-0.100000)"
fill="#000000" stroke="none">
<path d="M1421 6743 c0 -82 0 -180 0 -219 l-1 -71 -92 0 c-51 -1 -100 -1 -109
-2 -14 -1 -16 -35 -15 -316 1 -174 -1 -321 -4 -328 -4 -9 -61 -12 -220 -12
l-214 0 -1 -1018 0 -1018 -25 -19 c-14 -11 -30 -20 -35 -20 -10 0 -126 -89
-158 -121 -39 -40 -119 -154 -141 -203 -29 -62 -66 -180 -66 -208 0 -17 -7
-19 -62 -18 -35 1 -87 1 -115 1 l-53 -1 0 -1530 0 -1530 3390 0 3390 0 0 1541
c0 1462 -1 1540 -17 1535 -10 -2 -45 -8 -78 -12 -33 -4 -67 -8 -75 -9 -8 -2
-37 -6 -65 -9 -27 -4 -61 -9 -75 -11 -14 -2 -47 -7 -75 -11 -27 -3 -57 -8 -67
-10 -9 -1 -38 -5 -65 -9 -26 -4 -59 -8 -73 -10 -14 -2 -47 -7 -75 -10 -27 -4
-84 -13 -125 -20 -41 -7 -77 -9 -80 -5 -3 5 -5 522 -5 1149 l0 1141 -107 0
c-79 0 -108 3 -109 13 -1 6 -2 253 -2 549 -1 295 -5 539 -8 543 -4 3 -33 2
-65 -4 -33 -6 -78 -13 -101 -16 l-43 -6 -1 78 c-1 43 0 95 1 116 l2 37 -111 0
-111 0 0 -135 c0 -83 -4 -135 -10 -135 -5 0 -12 -1 -15 -1 -2 -1 -47 -9 -100
-19 l-95 -17 0 263 0 264 -109 0 -110 0 1 -276 c0 -151 -3 -279 -8 -283 -5 -5
-45 -14 -89 -20 -44 -7 -89 -15 -101 -17 -20 -5 -21 -2 -22 178 0 101 -1 186
-1 191 -1 4 -50 7 -109 7 l-108 0 1 -206 c0 -133 -3 -208 -10 -210 -5 -2 -23
-5 -40 -7 -16 -3 -46 -8 -65 -11 -19 -3 -48 -8 -64 -11 -16 -2 -31 -7 -35 -10
-3 -4 -6 -196 -6 -428 l0 -422 -107 -3 c-76 -2 -108 -6 -109 -15 0 -7 -1 -251
-1 -544 -1 -375 -4 -533 -12 -535 -6 -2 -202 -3 -436 -3 l-425 1 -3 765 -2
766 -211 -1 c-130 -1 -214 3 -218 9 -4 6 -7 149 -7 318 1 170 -2 314 -6 320
-4 7 -46 11 -110 11 l-103 1 0 218 0 217 -547 0 -547 0 0 -147z"/>
</g>
</svg>
